<?xml version="1.0" encoding="utf-8"?>
<!-- Generator: Adobe Illustrator 23.0.1, SVG Export Plug-In . SVG Version: 6.00 Build 0)  -->
<svg version="1.1" id="Layer_1" xmlns="http://www.w3.org/2000/svg" xmlns:xlink="http://www.w3.org/1999/xlink" x="0px" y="0px"
	 viewBox="0 0 40 40" style="enable-background:new 0 0 40 40;" xml:space="preserve">
<style type="text/css">
	.st0{clip-path:url(#SVGID_2_);}
	.st1{fill:#FAA515;}
	.st2{fill:#FAD207;}
	.st3{fill-rule:evenodd;clip-rule:evenodd;fill:#F8C201;}
	.st4{fill:#412591;}
	.st5{fill:#E0A446;}
	.st6{fill:#F5F5F5;}
</style>
<g>
	<defs>
		<rect id="SVGID_1_" x="1" y="1" width="38" height="38"/>
	</defs>
	<clipPath id="SVGID_2_">
		<use xlink:href="#SVGID_1_"  style="overflow:visible;"/>
	</clipPath>
	<g class="st0">
		<path class="st1" d="M19.2,8.9l-5.5,2.7c-0.5,0.2-0.9,0.7-1.1,1.2L5.8,29.9c-0.7,1.6,0,3.5,1.6,4.2l6.8,3h5.1L19.2,8.9z"/>
		<path class="st2" d="M34.5,32.3v3.3c0,1.8-1.5,3.4-3.4,3.4H17.2c-1.8,0-3.3-1.5-3.3-3.4V16.1c0-0.6,0.2-1.1,0.5-1.6l4.2-5.1
			c0.5-0.6,1.2-0.9,1.9-0.9h7.3c0.7,0,1.4,0.4,1.9,0.9l4.2,5.1c0.4,0.4,0.6,1,0.6,1.6L34.5,32.3L34.5,32.3z"/>
		<path class="st3" d="M23,21.7L23,21.7L23,21.7C23,21.7,23,21.7,23,21.7l-0.8-0.8l-0.1,0.2C21.8,21,21.5,21,21.3,21h-0.1
			c-1.3,0-2.4,1.1-2.4,2.4c0,0.3,0,0.5,0.1,0.8l-0.2,0.1l0.8,0.8l0,0l0,0l0,0c0.4,0.4,1,0.7,1.7,0.7h0.1c1.3,0,2.4-1.1,2.4-2.4
			C23.7,22.8,23.4,22.2,23,21.7z M21.3,24.7L21.3,24.7c-0.8,0-1.4-0.6-1.4-1.3s0.6-1.3,1.3-1.3h0.1c0.7,0,1.3,0.6,1.3,1.3
			S22,24.7,21.3,24.7z M30.1,21.2l-0.8-0.8L18.9,30.9l0.8,0.8c0.1,0.1,0.3,0.2,0.4,0.2c0.1,0,0.3-0.1,0.4-0.2l9.6-9.6
			c0.1-0.1,0.2-0.2,0.2-0.4C30.3,21.5,30.2,21.3,30.1,21.2z M30.2,27.5L30.2,27.5l-0.6-0.6l0,0.3c-0.3-0.1-0.7-0.2-1-0.2h-0.1
			c-1.3,0-2.4,1.1-2.4,2.4c0,0.3,0.1,0.7,0.2,1l-0.3,0l0.7,0.7c0,0,0.1,0.1,0.1,0.1l0,0l0,0c0.4,0.4,1,0.7,1.7,0.7h0.1
			c1.3,0,2.4-1.1,2.4-2.4C31.1,28.6,30.8,28,30.2,27.5z M28.6,30.7L28.6,30.7c-0.8,0-1.4-0.6-1.4-1.3c0-0.7,0.6-1.3,1.3-1.3h0.1
			c0.7,0,1.3,0.6,1.3,1.3C30,30.1,29.4,30.7,28.6,30.7z"/>
		<path class="st4" d="M19.3,31.1c-0.1,0-0.2,0-0.3-0.1c-0.1-0.1-0.2-0.2-0.2-0.3c0-0.1-0.1-0.2,0-0.3c0-0.1,0.1-0.2,0.2-0.3
			l9.6-9.6c0.1-0.1,0.2-0.2,0.4-0.2c0.1,0,0.3,0.1,0.4,0.2c0.1,0.1,0.2,0.2,0.2,0.4c0,0.1-0.1,0.3-0.2,0.4l-9.6,9.6
			c-0.1,0.1-0.1,0.1-0.2,0.1C19.5,31,19.4,31.1,19.3,31.1z M20.5,25.1L20.5,25.1c-1.4,0-2.5-1.1-2.5-2.4c0-1.3,1.1-2.4,2.4-2.4h0.1
			c1.3,0,2.4,1.1,2.4,2.4C23,24,21.9,25.1,20.5,25.1z M20.4,21.3c-0.7,0-1.3,0.6-1.3,1.3s0.6,1.3,1.3,1.3h0.1c0.7,0,1.3-0.6,1.3-1.3
			S21.2,21.3,20.4,21.3L20.4,21.3z M27.9,31.1L27.9,31.1c-1.4,0-2.5-1.1-2.5-2.4c0-1.3,1.1-2.4,2.4-2.4h0.1c1.3,0,2.4,1.1,2.4,2.4
			C30.3,30,29.2,31.1,27.9,31.1z M27.8,27.3c-0.7,0-1.3,0.6-1.3,1.3c0,0.7,0.6,1.3,1.3,1.3h0.1c0.7,0,1.3-0.6,1.3-1.3
			C29.2,27.9,28.6,27.3,27.8,27.3L27.8,27.3z"/>
		<path class="st5" d="M25.4,13.1c-0.1,0-0.3,0-0.4-0.1c-0.1-0.1-0.2-0.2-0.2-0.3c0-0.1,0-0.3,0.1-0.4c0.1-0.1,0.2-0.2,0.3-0.2
			c0.1,0,0.1,0,0.2-0.1c1.7-0.6,2.9-2.2,2.9-4V1.6c0-0.1,0.1-0.3,0.2-0.4C28.6,1.1,28.7,1,28.9,1c0.1,0,0.3,0.1,0.4,0.2
			c0.1,0.1,0.2,0.2,0.2,0.4v6.3c0,2.3-1.5,4.4-3.6,5.1c-0.1,0-0.2,0.1-0.2,0.1C25.5,13.1,25.4,13.1,25.4,13.1z"/>
		<path class="st6" d="M24.2,14.5c-1,0-1.8-0.8-1.8-1.8s0.8-1.8,1.8-1.8c1,0,1.8,0.8,1.8,1.8S25.2,14.5,24.2,14.5z"/>
	</g>
</g>
</svg>
