<?xml version="1.0" encoding="utf-8"?>
<!-- Generator: Adobe Illustrator 23.0.1, SVG Export Plug-In . SVG Version: 6.00 Build 0)  -->
<svg version="1.1" id="Layer_1" xmlns="http://www.w3.org/2000/svg" xmlns:xlink="http://www.w3.org/1999/xlink" x="0px" y="0px"
	 viewBox="0 0 40 40" style="enable-background:new 0 0 40 40;" xml:space="preserve">
<style type="text/css">
	.st0{fill:#FFFFFF;}
	.st1{fill:#1C274C;}
</style>
<path class="st0" d="M11,1.1h18c2.2,0,3.3,0,4.2,0.3c1.7,0.6,3,1.9,3.6,3.7C37,6,37,7.1,37,9.4v26.5c0,1.6-1.9,2.5-3,1.4
	c-0.7-0.6-1.7-0.6-2.4,0l-0.9,0.8c-1.2,1.1-3,1.1-4.3,0c-1.2-1.1-3-1.1-4.3,0c-1.2,1.1-3,1.1-4.3,0c-1.2-1.1-3-1.1-4.3,0
	c-1.2,1.1-3,1.1-4.3,0l-0.9-0.8c-0.7-0.6-1.7-0.6-2.4,0c-1.2,1.1-3,0.2-3-1.4V9.4C3,7.1,3,6,3.3,5.1C3.9,3.4,5.2,2,6.9,1.4
	C7.7,1.1,8.8,1.1,11,1.1z"/>
<path class="st1" d="M10.6,10.1c-0.8,0-1.4,0.6-1.4,1.4c0,0.8,0.6,1.4,1.4,1.4h0.9c0.8,0,1.4-0.6,1.4-1.4c0-0.8-0.6-1.4-1.4-1.4
	H10.6z M17.2,10.1c-0.8,0-1.4,0.6-1.4,1.4c0,0.8,0.6,1.4,1.4,1.4h12.3c0.8,0,1.4-0.6,1.4-1.4c0-0.8-0.6-1.4-1.4-1.4H17.2z
	 M10.6,16.7c-0.8,0-1.4,0.6-1.4,1.4s0.6,1.4,1.4,1.4h0.9c0.8,0,1.4-0.6,1.4-1.4s-0.6-1.4-1.4-1.4H10.6z M17.2,16.7
	c-0.8,0-1.4,0.6-1.4,1.4s0.6,1.4,1.4,1.4h12.3c0.8,0,1.4-0.6,1.4-1.4s-0.6-1.4-1.4-1.4H17.2z M10.6,23.3c-0.8,0-1.4,0.6-1.4,1.4
	s0.6,1.4,1.4,1.4h0.9c0.8,0,1.4-0.6,1.4-1.4s-0.6-1.4-1.4-1.4H10.6z M17.2,23.3c-0.8,0-1.4,0.6-1.4,1.4s0.6,1.4,1.4,1.4h12.3
	c0.8,0,1.4-0.6,1.4-1.4s-0.6-1.4-1.4-1.4H17.2z"/>
</svg>
