<svg xmlns="http://www.w3.org/2000/svg" version="1.1" xmlns:xlink="http://www.w3.org/1999/xlink" width="512" height="512" x="0" y="0" viewBox="0 0 510 510" style="enable-background:new 0 0 512 512" xml:space="preserve" class=""><g><path d="M375.893 500H134.107V98.543c0-6.996 4.462-13.21 11.085-15.44L360.46 10.62c7.584-2.553 15.434 3.094 15.434 11.104V500z" style="" fill="#93b2f4" data-original="#93b2f4" class=""></path><path d="M353 427.761c-90.039 0-169.78-44.043-218.893-111.747V500h241.786v-73.213c-7.549.633-15.181.974-22.893.974z" style="" fill="#6864f7" data-original="#6864f7"></path><path d="m134.107 200.791-80.684 26.314a18.744 18.744 0 0 0-12.925 17.823V500h93.609V200.791zM459.915 122.506l-84.022 27.403V500h93.609V129.472c0-4.98-4.856-8.509-9.587-6.966z" style="" fill="#27a2cc" data-original="#27a2cc" class=""></path><path d="M255 500v-92.17M195.103 357.31v-41.288M314.897 357.31v-41.288M255 266.158V224.87M195.103 174.442v-41.288M314.897 174.442V92.449M422.698 500v-92.17M422.698 266.158V194.34M87.302 352.551v-77.923M195.103 499.746v-92.17M314.897 499.746v-92.17M255 357.564v-41.287M195.103 265.903v-41.288M314.897 265.903v-41.288M255 174.697v-61.641M87.302 499.746v-92.17M422.698 357.564v-41.287" style="stroke-width:20;stroke-linecap:round;stroke-linejoin:round;stroke-miterlimit:10;" fill="none" stroke="#ffffff" stroke-width="20" stroke-linecap="round" stroke-linejoin="round" stroke-miterlimit="10" data-original="#ffffff"></path><path d="M375.893 500H134.107V98.543c0-6.996 4.462-13.21 11.085-15.44L360.46 10.62c7.584-2.553 15.434 3.094 15.434 11.104V500zM10 500h490M134.107 200.791l-80.684 26.314a18.744 18.744 0 0 0-12.925 17.823V500h93.609V200.791z" style="stroke-width:20;stroke-linecap:round;stroke-linejoin:round;stroke-miterlimit:10;" fill="none" stroke="#052a75" stroke-width="20" stroke-linecap="round" stroke-linejoin="round" stroke-miterlimit="10" data-original="#052a75" class=""></path><path d="m459.915 122.506-84.022 27.403V500h93.609V129.472c0-4.98-4.856-8.509-9.587-6.966z" style="stroke-width:20;stroke-linecap:round;stroke-linejoin:round;stroke-miterlimit:10;" fill="none" stroke="#052a75" stroke-width="20" stroke-linecap="round" stroke-linejoin="round" stroke-miterlimit="10" data-original="#052a75" class=""></path></g></svg>