<svg xmlns="http://www.w3.org/2000/svg" version="1.1" xmlns:xlink="http://www.w3.org/1999/xlink" width="512" height="512" x="0" y="0" viewBox="0 0 510 510" style="enable-background:new 0 0 512 512" xml:space="preserve" class=""><g><path d="M133.282 393c18.761 12.573 35.385 27.612 49.981 44H500v-44H133.282z" style="" fill="#d46b5c" data-original="#d46b5c" class=""></path><path d="M183.263 437c17.549 19.703 32.171 41.35 44.052 63H500v-63H183.263z" style="" fill="#67ccd1" data-original="#67ccd1"></path><path d="M222 225.471V393h254V225.471l-127-87.47z" style="" fill="#fde0be" data-original="#fde0be" class=""></path><path d="M338 236.932c0-32.693 9.208-63.231 25.163-89.177L349 138.001l-127 87.47V393h217.775C379.841 366.57 338 306.642 338 236.932z" style="" fill="#f7b073" data-original="#f7b073"></path><path d="M266 273h72v120h-72zM382 273h50v66.5h-50zM42.165 395.72c0-81.205 35.39-215.935 82.542-280.327h50.522c-45.843 69.95-67.806 199.359-67.806 280.327H42.165z" style="" fill="#d46b5c" data-original="#d46b5c" class=""></path><path d="m147.535 115.393 95.206-99.256c-27.333-11.972-60.384-6.388-82.243 16.401-21.86 22.789-26.063 56.044-12.963 82.855z" style="" fill="#91b706" data-original="#91b706"></path><path d="M147.535 115.393 52.329 16.137c27.333-11.972 60.384-6.388 82.243 16.401 21.86 22.789 26.063 56.044 12.963 82.855z" style="" fill="#91b706" data-original="#91b706"></path><path d="M147.535 115.393H10c10.281-28.013 37.19-48 68.768-48 31.577 0 58.486 19.987 68.767 48zM147.535 115.393H285.07c-10.281-28.013-37.19-48-68.768-48-31.577 0-58.486 19.987-68.767 48z" style="" fill="#b1d952" data-original="#b1d952"></path><path d="M10 355.617V500h217.315C187.698 427.808 117.641 355.617 10 355.617z" style="" fill="#fde0be" data-original="#fde0be" class=""></path><path d="M78.11 408.666c0-14.106 2.689-27.583 7.58-39.949-22.828-8.318-48.013-13.1-75.69-13.1V500h117.883c-29.948-19.351-49.773-53.026-49.773-91.334z" style="" fill="#f7b073" data-original="#f7b073"></path><circle cx="451.899" cy="78.899" r="48.101" style="" fill="#fdcb50" data-original="#fdcb50"></circle><path d="M107.746 378.166c2.849-81.121 24.826-197.685 67.483-262.773M124.707 115.393c-40.442 55.229-72.229 162.2-80.458 242.764M188.223 72.974l54.518-56.837c-27.333-11.972-60.384-6.388-82.243 16.401-21.859 22.789-26.062 56.044-12.962 82.855M147.535 115.393z" style="stroke-width:20;stroke-linejoin:round;stroke-miterlimit:10;" fill="none" stroke="#052a75" stroke-width="20" stroke-linejoin="round" stroke-miterlimit="10" data-original="#052a75" class=""></path><path d="M147.535 51.078a73.164 73.164 0 0 0-12.962-18.54C112.714 9.749 79.663 4.165 52.329 16.137l54.518 56.837" style="stroke-width:20;stroke-linejoin:round;stroke-miterlimit:10;" fill="none" stroke="#052a75" stroke-width="20" stroke-linejoin="round" stroke-miterlimit="10" data-original="#052a75" class=""></path><path d="M147.535 115.393c-10.281-28.013-37.19-48-68.767-48-31.578 0-58.486 19.987-68.768 48h137.535M147.535 115.393c10.281-28.013 37.19-48 68.767-48 31.578 0 58.486 19.987 68.768 48H147.535M10 355.617V500h217.315C187.698 427.808 117.641 355.617 10 355.617z" style="stroke-width:20;stroke-linejoin:round;stroke-miterlimit:10;" fill="none" stroke="#052a75" stroke-width="20" stroke-linejoin="round" stroke-miterlimit="10" data-original="#052a75" class=""></path><path d="m198 242.001 151-104 151 104" style="stroke-width:20;stroke-linecap:round;stroke-linejoin:round;stroke-miterlimit:10;" fill="none" stroke="#052a75" stroke-width="20" stroke-linecap="round" stroke-linejoin="round" stroke-miterlimit="10" data-original="#052a75" class=""></path><path d="M222 393V226.368M476 226.368V393M266 393V273h72v120" style="stroke-width:20;stroke-linejoin:round;stroke-miterlimit:10;" fill="none" stroke="#052a75" stroke-width="20" stroke-linejoin="round" stroke-miterlimit="10" data-original="#052a75" class=""></path><path d="M335.498 210.256h27.004" style="stroke-width:20;stroke-linecap:round;stroke-linejoin:round;stroke-miterlimit:10;" fill="none" stroke="#d46b5c" stroke-width="20" stroke-linecap="round" stroke-linejoin="round" stroke-miterlimit="10" data-original="#d46b5c"></path><path d="M430.5 437v63M361 437v63M291.5 437v63" style="stroke-width:20;stroke-linejoin:round;stroke-miterlimit:10;" fill="none" stroke="#6864f7" stroke-width="20" stroke-linejoin="round" stroke-miterlimit="10" data-original="#6864f7"></path><path d="M133.287 393H500v44H183.266M500 437v63H227.315" style="stroke-width:20;stroke-linejoin:round;stroke-miterlimit:10;" fill="none" stroke="#052a75" stroke-width="20" stroke-linejoin="round" stroke-miterlimit="10" data-original="#052a75" class=""></path></g></svg>