<svg xmlns="http://www.w3.org/2000/svg" version="1.1" xmlns:xlink="http://www.w3.org/1999/xlink" width="512" height="512" x="0" y="0" viewBox="0 0 512 512" style="enable-background:new 0 0 512 512" xml:space="preserve" class=""><g><path d="M71.5 221.454h369V502h-369z" style="" fill="#d46b5c" data-original="#d46b5c" class=""></path><path d="M71.5 221.454v89.214c3.317 2.883 5.643 4.717 6.128 5.096 7.235 5.651 15.928 8.476 24.622 8.476s17.387-2.825 24.622-8.476c.486-.379 2.812-2.213 6.128-5.096 3.317 2.883 5.643 4.717 6.128 5.096 7.235 5.651 15.928 8.476 24.622 8.476s17.387-2.825 24.622-8.476c.486-.379 2.812-2.213 6.128-5.096 3.317 2.883 5.643 4.717 6.128 5.096 7.235 5.651 15.928 8.476 24.622 8.476s17.387-2.825 24.622-8.476c.486-.379 2.812-2.213 6.128-5.096 3.317 2.883 5.643 4.717 6.128 5.096 7.235 5.651 15.928 8.476 24.622 8.476s17.387-2.825 24.622-8.476c.486-.379 2.812-2.213 6.128-5.096 3.317 2.883 5.643 4.717 6.128 5.096 7.235 5.651 15.928 8.476 24.622 8.476s17.387-2.825 24.622-8.476c.486-.379 2.812-2.213 6.128-5.096 3.317 2.883 5.643 4.717 6.128 5.096 7.235 5.651 15.928 8.476 24.622 8.476s17.387-2.825 24.622-8.476c.486-.379 2.812-2.213 6.128-5.096v-89.214h-369z" style="" fill="#b55348" data-original="#b55348"></path><path d="M205.983 502v-75.657c0-27.623 22.393-50.017 50.017-50.017s50.017 22.393 50.017 50.017V502H205.983z" style="" fill="#6864f7" data-original="#6864f7" class=""></path><path d="M379 243.24c0 16.983-30.75 41-30.75 41s-30.75-24.017-30.75-41c0 16.983-30.75 41-30.75 41s-30.75-24.017-30.75-41c0 16.983-30.75 41-30.75 41s-30.75-24.017-30.75-41c0 16.983-30.75 41-30.75 41s-30.75-24.017-30.75-41c0 16.983-30.75 41-30.75 41s-30.75-24.017-30.75-41c0 16.983-30.75 41-30.75 41l-19.644-26.192a55.533 55.533 0 0 1 18.62-82.491L256 62.058l216.22 113.169a55.532 55.532 0 0 1 29.78 49.2v.302a55.533 55.533 0 0 1-11.106 33.319L471.25 284.24s-30.75-24.017-30.75-41c0 16.983-30.75 41-30.75 41s-30.75-24.017-30.75-41z" style="" fill="#fdcb50" data-original="#fdcb50"></path><path d="M256 10v52.058M226.916 33.077h1.385c15.298 0 27.699 12.401 27.699 27.699v1.282M285.084 33.077h-1.385C268.401 33.077 256 45.478 256 60.776v1.282" style="stroke-width:20;stroke-linecap:round;stroke-linejoin:round;stroke-miterlimit:10;" fill="none" stroke="#fdcb50" stroke-width="20" stroke-linecap="round" stroke-linejoin="round" stroke-miterlimit="10" data-original="#fdcb50"></path><path d="M205.983 502v-75.657c0-27.623 22.393-50.017 50.017-50.017s50.017 22.393 50.017 50.017V502" style="stroke-width:20;stroke-linejoin:round;stroke-miterlimit:10;" fill="none" stroke="#052a75" stroke-width="20" stroke-linejoin="round" stroke-miterlimit="10" data-original="#052a75" class=""></path><path d="M71.5 243.24c0 16.983 30.75 41 30.75 41s30.75-24.017 30.75-41M194.5 243.24c0 16.983 30.75 41 30.75 41s30.75-24.017 30.75-41M256 243.24c0 16.983 30.75 41 30.75 41s30.75-24.017 30.75-41M133 243.24c0 16.983 30.75 41 30.75 41s30.75-24.017 30.75-41M379 243.24c0 16.983-30.75 41-30.75 41s-30.75-24.017-30.75-41M440.5 243.24c0 16.983-30.75 41-30.75 41s-30.75-24.017-30.75-41" style="stroke-width:20;stroke-linecap:round;stroke-linejoin:round;stroke-miterlimit:10;" fill="none" stroke="#052a75" stroke-width="20" stroke-linecap="round" stroke-linejoin="round" stroke-miterlimit="10" data-original="#052a75" class=""></path><path d="M440.5 243.24c0 16.983 30.75 41 30.75 41l19.644-26.192A55.533 55.533 0 0 0 502 224.729v-.302a55.532 55.532 0 0 0-29.78-49.2L256 62.058l-216.274 113.5A55.53 55.53 0 0 0 10 224.729v0a55.533 55.533 0 0 0 11.106 33.319L40.75 284.24s30.75-24.017 30.75-41" style="stroke-width:20;stroke-linecap:round;stroke-linejoin:round;stroke-miterlimit:10;" fill="none" stroke="#052a75" stroke-width="20" stroke-linecap="round" stroke-linejoin="round" stroke-miterlimit="10" data-original="#052a75" class=""></path><path d="M440.5 253.49V502h-369V253.49" style="stroke-width:20;stroke-linecap:round;stroke-linejoin:round;stroke-miterlimit:10;" fill="none" stroke="#052a75" stroke-width="20" stroke-linecap="round" stroke-linejoin="round" stroke-miterlimit="10" data-original="#052a75" class=""></path></g></svg>