<svg xmlns="http://www.w3.org/2000/svg" version="1.1" xmlns:xlink="http://www.w3.org/1999/xlink" width="512" height="512" x="0" y="0" viewBox="0 0 510 510" style="enable-background:new 0 0 512 512" xml:space="preserve" class=""><g><path d="M94.439 330.012c-45.877 0-83.067-37.19-83.067-83.067V93.81c0-45.876 37.19-83.066 83.067-83.066 45.876 0 83.067 37.19 83.067 83.325v144.409c-.001 46.042-27.709 91.534-83.067 91.534z" style="" fill="#91b706" data-original="#91b706"></path><path d="M163.311 414.956c-20.553-8-34.413 2.325-40.339 8.299-4.302-11.61-15.473-19.887-28.58-19.887-13.107 0-24.278 8.276-28.58 19.887-5.926-5.974-14.307-9.509-23.505-8.958-15.013.898-27.298 12.926-28.498 27.918-.515 6.435.982 12.485 3.914 17.607a38.712 38.712 0 0 0-6.351 21.296v18.139h177.09l-25.151-84.301z" style="" fill="#b1d952" data-original="#b1d952"></path><path d="M305.146 268.609c4.591 31.998 0 124.443-67.841 126.627-67.841 2.185-74.309 0-74.309 0-36.553-10.043-58.525-37.744-66.313-74.485-1.45-6.841-2.245-13.834-2.245-20.944 0-81.264 103.78-224.674 103.78-224.674s98.963 137.957 106.928 193.476z" style="" fill="#27a2cc" data-original="#27a2cc" class=""></path><path d="m160.846 291.732 1.6 207.525h312.832V284.865L318.862 141.177z" style="" fill="#ffffff" data-original="#ffffff" class=""></path><path d="M475.28 428.264v70.99H162.45l-1.6-207.52 73.45-69.99c-3.01 14.02-4.61 28.65-4.61 43.71 0 102.65 74.16 185.86 165.64 185.86 28.99 0 56.25-8.36 79.95-23.05z" style="" fill="#fde0be" data-original="#fde0be" class=""></path><path d="M341.916 370.732h71.475v130.299h-71.475z" style="" fill="#d46b5c" data-original="#d46b5c"></path><path d="M220.177 368.958h61.33v60.315h-61.33z" style="" fill="#93b2f4" data-original="#93b2f4"></path><path d="M93.574 330.012h0c-45.877 0-83.067-37.19-83.067-83.067V93.81c0-45.876 37.19-83.066 83.067-83.066h0c45.876 0 83.067 37.19 83.067 83.325v12.575" style="stroke-width:20;stroke-linecap:round;stroke-linejoin:round;stroke-miterlimit:10;" fill="none" stroke="#052a75" stroke-width="20" stroke-linecap="round" stroke-linejoin="round" stroke-miterlimit="10" data-original="#052a75" class=""></path><path d="M93.498 403.368V91.902M93.498 158.923l22.035-23.049M93.252 202.902l-21.875-17.92" style="stroke-width:20;stroke-linecap:round;stroke-linejoin:round;stroke-miterlimit:10;" fill="none" stroke="#d46b5c" stroke-width="20" stroke-linecap="round" stroke-linejoin="round" stroke-miterlimit="10" data-original="#d46b5c" class=""></path><path d="M162.446 414.956c-20.553-8-34.413 2.325-40.339 8.299-4.302-11.61-15.473-19.887-28.58-19.887-13.107 0-24.278 8.276-28.58 19.887-5.926-5.974-14.307-9.509-23.505-8.958-15.013.898-27.298 12.926-28.498 27.918-.515 6.435.982 12.485 3.914 17.607a38.712 38.712 0 0 0-6.351 21.296v18.139M162.446 395.722c-36.553-10.042-58.525-37.744-66.313-74.485-1.45-6.841-2.245-13.834-2.245-20.944 0-81.264 103.78-224.674 103.78-224.674s38.709 53.491 68.846 113.648" style="stroke-width:20;stroke-linecap:round;stroke-linejoin:round;stroke-miterlimit:10;" fill="none" stroke="#052a75" stroke-width="20" stroke-linecap="round" stroke-linejoin="round" stroke-miterlimit="10" data-original="#052a75" class=""></path><path d="M197.669 207.355v40.28" style="stroke-width:20;stroke-linecap:round;stroke-linejoin:round;stroke-miterlimit:10;" fill="none" stroke="#d46b5c" stroke-width="20" stroke-linecap="round" stroke-linejoin="round" stroke-miterlimit="10" data-original="#d46b5c" class=""></path><path d="M162.446 499.257V284.805M475.278 284.865v214.392M318.862 141.177 138.231 307.109l180.631-165.932 180.631 165.932M341.916 368.958h71.475v130.299h-71.475zM10 499.257h490" style="stroke-width:20;stroke-linecap:round;stroke-linejoin:round;stroke-miterlimit:10;" fill="none" stroke="#052a75" stroke-width="20" stroke-linecap="round" stroke-linejoin="round" stroke-miterlimit="10" data-original="#052a75" class=""></path></g></svg>