<svg xmlns="http://www.w3.org/2000/svg" version="1.1" xmlns:xlink="http://www.w3.org/1999/xlink" width="512" height="512" x="0" y="0" viewBox="0 0 512 512" style="enable-background:new 0 0 512 512" xml:space="preserve" class=""><g><g fill-rule="evenodd" clip-rule="evenodd"><path fill="#d2dcfd" d="M476.898 65.245c13.806 0 25.102 11.296 25.102 25.102s-11.296 25.102-25.102 25.102H343.975c-13.806 0-25.102-11.296-25.102-25.102s11.296-25.102 25.102-25.102c0-27.727 22.477-50.204 50.204-50.204 16.132 0 30.485 7.61 39.67 19.435 20.902-7.155 43.049 8.309 43.049 30.769zM194.979 166.908c13.806 0 25.102 11.296 25.102 25.102s-11.296 25.102-25.102 25.102H62.056c-13.806 0-25.102-11.296-25.102-25.102s11.296-25.102 25.102-25.102c0-27.727 22.477-50.204 50.204-50.204 16.132 0 30.485 7.61 39.67 19.435 20.903-7.155 43.049 8.309 43.049 30.769z" opacity="1" data-original="#d2dcfd"></path><path fill="#d46b5c" d="m256 117.489 193.077 159.649H62.924z" opacity="1" data-original="#d46b5c" class=""></path><path fill="#f7b073" d="M97.355 277.138h317.29v151.617H97.355z" opacity="1" data-original="#f7b073"></path><path fill="#b55348" d="m256 117.489 3.921 3.243C226 157.55 205.275 206.712 205.275 260.72c0 5.527.223 11.001.648 16.418H62.924z" opacity="1" data-original="#b55348"></path><path fill="#d46b5c" d="M97.355 277.138h108.568c4.909 62.459 37.587 117.107 85.691 151.617H97.355z" opacity="1" data-original="#d46b5c" class=""></path><path fill="#fde0be" d="M215.042 323.65h199.603v46.511H236.61c-25.581-5.624-39.141-33.022-21.568-46.511z" opacity="1" data-original="#fde0be"></path><path fill="#f7b073" d="M97.355 323.65h117.689a205.718 205.718 0 0 0 21.571 46.511H97.355z" opacity="1" data-original="#f7b073"></path><path fill="#b55348" d="M256 324.905c18.099 0 32.906 14.807 32.906 32.905v70.944h-65.811V357.81c-.001-18.098 14.807-32.905 32.905-32.905z" opacity="1" data-original="#b55348"></path><path fill="#fde0be" d="M502 446.018v40.941H10v-40.941c80.23-19.477 162.937-29.345 246-29.345s165.77 9.868 246 29.345z" opacity="1" data-original="#fde0be"></path></g><path fill="#f7b073" d="m349.848 268.736-85.115-152.588a9.999 9.999 0 0 0-17.466 0l-85.115 152.588c-2.69 4.823-.961 10.915 3.862 13.605 4.823 2.691 10.915.961 13.605-3.862L246 159.475v110.939c0 5.523 4.477 10 10 10s10-4.477 10-10V159.476l66.381 119.003a9.996 9.996 0 0 0 13.604 3.861c4.824-2.689 6.554-8.781 3.863-13.604z" opacity="1" data-original="#f7b073"></path><path fill="#052a75" d="M504.359 436.3a1045.376 1045.376 0 0 0-79.714-16.09V287.138h24.432a10 10 0 0 0 6.372-17.707L262.373 109.783a10.001 10.001 0 0 0-12.745 0L56.551 269.432a10 10 0 0 0 6.372 17.707h24.431V420.21A1045.376 1045.376 0 0 0 7.64 436.3 10 10 0 0 0 0 446.018v40.941c0 5.523 4.477 10 10 10h492c5.522 0 10-4.477 10-10v-40.941c0-4.614-3.158-8.63-7.641-9.718zM256 130.465l165.291 136.673H90.71zM107.355 287.138h297.29v130.033a1056.59 1056.59 0 0 0-105.739-9.628V357.81c0-23.658-19.247-42.905-42.906-42.905-23.658 0-42.906 19.247-42.906 42.905v49.734a1056.59 1056.59 0 0 0-105.739 9.628zm171.551 119.784a1053.388 1053.388 0 0 0-45.812 0V357.81c0-12.63 10.275-22.905 22.906-22.905s22.906 10.275 22.906 22.905zM492 476.959H20v-23.047c77.047-18.077 156.404-27.239 236-27.239 79.597 0 158.954 9.162 236 27.239z" opacity="1" data-original="#052a75" class=""></path></g></svg>