<svg xmlns="http://www.w3.org/2000/svg" version="1.1" xmlns:xlink="http://www.w3.org/1999/xlink" width="512" height="512" x="0" y="0" viewBox="0 0 510 510" style="enable-background:new 0 0 512 512" xml:space="preserve" class=""><g><circle cx="79.937" cy="75.601" r="69.937" style="" fill="#fdcb50" data-original="#fdcb50"></circle><path d="M10 374.442h488.672v121.131H10z" style="" fill="#67ccd1" data-original="#67ccd1" class=""></path><path d="M186.77 495.57H10V374.44h143.8c-9.33 13.76-14.43 28.65-14.43 44.18 0 28.91 17.65 55.58 47.4 76.95z" style="" fill="#27a2cc" data-original="#27a2cc" class=""></path><path d="M255 264.941h243.672v108.247H255z" style="" fill="#b1d952" data-original="#b1d952" class=""></path><path d="M390.16 373.19H255V264.94h72.66z" style="" fill="#91b706" data-original="#91b706" class=""></path><path d="M225.306 199.375H110.288L9.937 373.188h279.872z" style="" fill="#b55348" data-original="#b55348"></path><path d="m156.993 315.474-114.542-.825 44.102-78.563h115.62z" style="" fill="#d46b5c" data-original="#d46b5c"></path><path d="m190.754 256.15-115.991.938 33.762-59.324 115.008 1.611z" style="" fill="#f7b073" data-original="#f7b073"></path><path d="M325.72 373.188 225.369 199.375 125.018 373.188z" style="" fill="#fde0be" data-original="#fde0be"></path><path d="M314.807 210.246c-20.35 0-36.848-16.497-36.848-36.847v-32.064c0-20.35 16.497-36.848 36.848-36.848 20.35 0 36.848 16.497 36.848 36.848v32.064c0 20.35-16.497 36.847-36.848 36.847z" style="" fill="#b1d952" data-original="#b1d952" class=""></path><path d="M388.991 210.246c-20.35 0-36.848-16.497-36.848-36.847v-32.064c0-20.35 16.497-36.848 36.848-36.848 20.35 0 36.848 16.497 36.848 36.848v32.064c-.001 20.35-16.498 36.847-36.848 36.847z" style="" fill="#91b706" data-original="#91b706" class=""></path><path d="M462.686 210.246c-20.35 0-36.848-16.497-36.848-36.847v-32.064c0-20.35 16.497-36.848 36.848-36.848 20.35 0 36.847 16.497 36.847 36.848v32.064c0 20.35-16.497 36.847-36.847 36.847z" style="" fill="#b1d952" data-original="#b1d952" class=""></path><path d="M192.492 434.018h12.628M374.521 434.018h124.151M10 434.018h124.151" style="stroke-width:20;stroke-linecap:round;stroke-linejoin:round;stroke-miterlimit:10;" fill="none" stroke="#ffffff" stroke-width="20" stroke-linecap="round" stroke-linejoin="round" stroke-miterlimit="10" data-original="#ffffff" class=""></path><path d="M10 373.205h488.672v121.131H10zM225.369 199.375H110.351L10 373.188M325.72 373.188 225.369 199.375 125.018 373.188M225.369 373.188v-29.034M463.152 210.246h0c-20.35 0-36.848-16.497-36.848-36.847v-32.064c0-20.35 16.497-36.848 36.848-36.848h0c20.35 0 36.848 16.497 36.848 36.848v32.064c0 20.35-16.497 36.847-36.848 36.847z" style="stroke-width:20;stroke-linecap:round;stroke-linejoin:round;stroke-miterlimit:10;" fill="none" stroke="#052a75" stroke-width="20" stroke-linecap="round" stroke-linejoin="round" stroke-miterlimit="10" data-original="#052a75" class=""></path><path d="M463.152 264.941v-82.506" style="stroke-width:20;stroke-linecap:round;stroke-linejoin:round;stroke-miterlimit:10;" fill="none" stroke="#b55348" stroke-width="20" stroke-linecap="round" stroke-linejoin="round" stroke-miterlimit="10" data-original="#b55348"></path><path d="M388.991 210.246h0c-20.35 0-36.848-16.497-36.848-36.847v-32.064c0-20.35 16.497-36.848 36.848-36.848h0c20.35 0 36.848 16.497 36.848 36.848v32.064c-.001 20.35-16.498 36.847-36.848 36.847z" style="stroke-width:20;stroke-linecap:round;stroke-linejoin:round;stroke-miterlimit:10;" fill="none" stroke="#052a75" stroke-width="20" stroke-linecap="round" stroke-linejoin="round" stroke-miterlimit="10" data-original="#052a75" class=""></path><path d="M388.991 264.941v-82.506" style="stroke-width:20;stroke-linecap:round;stroke-linejoin:round;stroke-miterlimit:10;" fill="none" stroke="#b55348" stroke-width="20" stroke-linecap="round" stroke-linejoin="round" stroke-miterlimit="10" data-original="#b55348"></path><path d="M314.807 210.246h0c-20.35 0-36.848-16.497-36.848-36.847v-32.064c0-20.35 16.497-36.848 36.848-36.848h0c20.35 0 36.848 16.497 36.848 36.848v32.064c0 20.35-16.497 36.847-36.848 36.847z" style="stroke-width:20;stroke-linecap:round;stroke-linejoin:round;stroke-miterlimit:10;" fill="none" stroke="#052a75" stroke-width="20" stroke-linecap="round" stroke-linejoin="round" stroke-miterlimit="10" data-original="#052a75" class=""></path><path d="M314.807 264.941v-82.506" style="stroke-width:20;stroke-linecap:round;stroke-linejoin:round;stroke-miterlimit:10;" fill="none" stroke="#b55348" stroke-width="20" stroke-linecap="round" stroke-linejoin="round" stroke-miterlimit="10" data-original="#b55348"></path><path d="M263.224 264.941h235.448" style="stroke-width:20;stroke-linecap:round;stroke-linejoin:round;stroke-miterlimit:10;" fill="none" stroke="#052a75" stroke-width="20" stroke-linecap="round" stroke-linejoin="round" stroke-miterlimit="10" data-original="#052a75" class=""></path></g></svg>