<svg xmlns="http://www.w3.org/2000/svg" version="1.1" xmlns:xlink="http://www.w3.org/1999/xlink" width="512" height="512" x="0" y="0" viewBox="0 0 128 128" style="enable-background:new 0 0 512 512" xml:space="preserve" class=""><g><path fill="#e0eff4" d="M63.982 53.885 36.318 68.522V112.5h18.206V92.854H73.44V112.5h18.206V68.657z" opacity="1" data-original="#e0eff4"></path><path fill="#c2dbe5" d="M80.5 112.5h11.146V67.685L80.5 62.917z" opacity="1" data-original="#c2dbe5"></path><path fill="#cb6f2c" d="M54.524 92.854h18.915V112.5H54.524z" opacity="1" data-original="#cb6f2c"></path><path fill="#ff6100" d="M99.34 74.485a1.742 1.742 0 0 1-.817-.2L63.771 55.869l-34.285 18.4a1.75 1.75 0 1 1-1.655-3.084l35.107-18.842a1.753 1.753 0 0 1 1.647 0l35.576 18.849a1.75 1.75 0 0 1-.821 3.3z" opacity="1" data-original="#ff6100"></path><path fill="#36cef4" d="M98.915 15.604h-45.08L45.25 30.896l31.125 39.331L107.5 30.896z" opacity="1" data-original="#36cef4"></path><path fill="#5ed8f6" d="M45.25 30.896h62.25l-8.585-15.292h-45.08z" opacity="1" data-original="#5ed8f6"></path><g fill="#9ee7f9"><path d="M53.835 15.604 66 30.896H45.25zM76.375 15.604 86.75 30.896H66zM98.915 15.604l8.585 15.292H86.75z" fill="#9ee7f9" opacity="1" data-original="#9ee7f9"></path></g><path fill="#11afff" d="m66 30.896 10.375 39.331L86.75 30.896z" opacity="1" data-original="#11afff"></path><path fill="#af5819" d="M63.982 92.854h9.458V112.5h-9.458z" opacity="1" data-original="#af5819"></path><path fill="#292929" d="M112.5 110.75h-97a1.75 1.75 0 0 0 0 3.5h97a1.75 1.75 0 0 0 0-3.5z" opacity="1" data-original="#292929" class=""></path><path fill="#c2dbe5" d="M44.125 92.854h10.399v17.896H44.125z" opacity="1" data-original="#c2dbe5"></path></g></svg>