<svg xmlns="http://www.w3.org/2000/svg" version="1.1" xmlns:xlink="http://www.w3.org/1999/xlink" width="512" height="512" x="0" y="0" viewBox="0 0 510 510" style="enable-background:new 0 0 512 512" xml:space="preserve" class=""><g><path d="M345.333 289.409c-7.45-1.34-14.006-6.493-16.788-14.117-4.166-11.414 1.71-24.043 13.124-28.209 16.111-5.879 24.948-23.376 20.119-39.832L328.925 95.258a66.425 66.425 0 0 1 34.371-78.384c30.117-14.877 66.71-4.91 85.12 23.184 6.659 10.163 3.819 23.8-6.343 30.459-10.163 6.66-23.8 3.819-30.459-6.343-6.235-9.515-18.628-12.89-28.828-7.852a22.498 22.498 0 0 0-11.641 26.547l32.863 111.993c11.342 38.651-9.414 79.746-47.254 93.555a21.904 21.904 0 0 1-11.421.992zM283.438 167.728c7.264-18.627 7.988-40.048.987-59.976-17.601 1.695-33.732 9.867-45.963 22.522-11.142-4.317-23.419-6.72-36.324-6.72s-25.182 2.403-36.324 6.72c-12.231-12.655-28.362-20.827-45.963-22.522-7.001 19.928-6.277 41.349.987 59.976-6.69 11.44-10.494 24.454-10.494 38.273 0 45.534 41.098 82.447 91.794 82.447s91.794-36.913 91.794-82.447c0-13.819-3.804-26.833-10.494-38.273z" style="" fill="#93b2f4" data-original="#93b2f4"></path><path d="M99.056 242.884h311.887V500H99.056z" style="" fill="#fdcb50" data-original="#fdcb50" class=""></path><path d="M238.81 386.176c0-54.666 19.841-104.691 52.7-143.292H99.056V500h171.259c-19.997-33.255-31.505-72.193-31.505-113.824z" style="" fill="#fd8f01" data-original="#fd8f01" class=""></path><path d="m99.056 242.884 51.417 89.056h209.054l51.417-89.056z" style="" fill="#fde0be" data-original="#fde0be" class=""></path><path d="M402.319 242.884c5.526-14.953 6.479-31.702 1.689-48.022L371.145 82.869a22.497 22.497 0 0 1 11.641-26.547c10.2-5.038 22.594-1.662 28.828 7.852 6.659 10.162 20.296 13.003 30.459 6.343 10.162-6.659 13.002-20.297 6.343-30.459-18.41-28.094-55.004-38.062-85.12-23.184a66.424 66.424 0 0 0-34.371 78.384l32.863 111.993c3.966 13.515-1.29 27.725-12.218 35.633M236.202 191.491l-8.557 6.609M168.073 191.491l8.557 6.609M284.25 242.884c6.192-11.099 9.682-23.624 9.682-36.883 0-13.819-3.804-26.833-10.494-38.273 7.264-18.627 7.988-40.048.987-59.976-17.602 1.695-33.732 9.867-45.963 22.522-11.142-4.317-23.419-6.72-36.324-6.72-12.905 0-25.182 2.403-36.324 6.72-12.231-12.655-28.362-20.827-45.963-22.522-7.001 19.928-6.277 41.349.987 59.976-6.69 11.44-10.494 24.454-10.494 38.273 0 13.259 3.49 25.784 9.682 36.883" style="stroke-width:20;stroke-linecap:round;stroke-linejoin:round;stroke-miterlimit:10;" fill="none" stroke="#052a75" stroke-width="20" stroke-linecap="round" stroke-linejoin="round" stroke-miterlimit="10" data-original="#052a75" class=""></path><path d="M410.944 242.884V500H99.056V242.884" style="stroke-width:20;stroke-linecap:round;stroke-linejoin:round;stroke-miterlimit:10;" fill="none" stroke="#052a75" stroke-width="20" stroke-linecap="round" stroke-linejoin="round" stroke-miterlimit="10" data-original="#052a75" class=""></path><path d="m10 331.94 89.056-89.056h311.888L500 331.94" style="stroke-width:20;stroke-linecap:round;stroke-linejoin:round;stroke-miterlimit:10;" fill="none" stroke="#052a75" stroke-width="20" stroke-linecap="round" stroke-linejoin="round" stroke-miterlimit="10" data-original="#052a75" class=""></path><path d="M189.622 445.428h-34.343M215.124 399.177h-59.845" style="stroke-width:20;stroke-linecap:round;stroke-linejoin:round;stroke-miterlimit:10;" fill="none" stroke="#ffffff" stroke-width="20" stroke-linecap="round" stroke-linejoin="round" stroke-miterlimit="10" data-original="#ffffff" class=""></path></g></svg>