<svg xmlns="http://www.w3.org/2000/svg" version="1.1" xmlns:xlink="http://www.w3.org/1999/xlink" width="512" height="512" x="0" y="0" viewBox="0 0 64 64" style="enable-background:new 0 0 512 512" xml:space="preserve" class=""><g><path fill="#8cff96" d="M52.639 22.032a6 6 0 1 0-7.4 3.7 8 8 0 1 0 7.4-3.7z" opacity="1" data-original="#8cff96" class=""></path><path fill="#78ef82" d="M60 30a8 8 0 0 0-7.361-7.968 5.938 5.938 0 0 0-.52-5.151 5.993 5.993 0 0 0-8.255 8.213 5.909 5.909 0 0 0 1.375.642A8 8 0 1 0 60 30z" opacity="1" data-original="#78ef82" class=""></path><path fill="#a6665a" d="M11 18h6v17h-6z" opacity="1" data-original="#a6665a"></path><path fill="#96554b" d="M13 20h4v15h-4z" opacity="1" data-original="#96554b"></path><path fill="#ffecb4" d="M32 10 9 45.321V58h46V45.321z" opacity="1" data-original="#ffecb4" class=""></path><path fill="#fadb94" d="M55 48.988v-3.667L32 10 9 45.321v3.666l23-35.322z" opacity="1" data-original="#fadb94"></path><path fill="#8cff96" d="M2 58h60v4H2z" opacity="1" data-original="#8cff96" class=""></path><path fill="#78ef82" d="M5 60h57v2H5z" opacity="1" data-original="#78ef82" class=""></path><circle cx="32" cy="28" r="4" fill="#ffdc64" opacity="1" data-original="#ffdc64"></circle><g fill="#f5faff"><path d="M16 44h5v8h-5zM26 44h6v14h-6zM32 44h6v14h-6zM43 44h5v8h-5z" fill="#f5faff" opacity="1" data-original="#f5faff"></path></g><path fill="#b67769" d="M32 2 4.045 44.931a2.183 2.183 0 0 0 .638 3.02 2.183 2.183 0 0 0 3.02-.638L32 10l24.3 37.313a2.183 2.183 0 0 0 3.02.638 2.183 2.183 0 0 0 .638-3.02z" opacity="1" data-original="#b67769"></path><path fill="#a6665a" d="M33.326 4.036 6.045 45.931a2.177 2.177 0 0 0-.009 2.359 2.17 2.17 0 0 0 1.664-.977L32 10l24.3 37.313a2.183 2.183 0 0 0 3.658-2.382z" opacity="1" data-original="#a6665a"></path><path fill="#8cff96" d="M16.07 54.163a2.993 2.993 0 1 0-4.942-2.982 3.919 3.919 0 0 0-4.991 2.833C6.091 54.012 6.047 54 6 54a4 4 0 0 0-4 4h17a3.989 3.989 0 0 0-2.93-3.837z" opacity="1" data-original="#8cff96" class=""></path><path fill="#78ef82" d="M4.141 58H19a3.989 3.989 0 0 0-2.93-3.837 2.968 2.968 0 0 0 .172-4.139C16.16 50.018 16.083 50 16 50a2.99 2.99 0 0 0-2.872 2.181 3.919 3.919 0 0 0-4.991 2.833C8.091 55.012 8.047 55 8 55a3.991 3.991 0 0 0-3.859 3z" opacity="1" data-original="#78ef82" class=""></path><path d="M62 57h-6v-8.525a3.176 3.176 0 0 0 4.794-4.089l-4.3-6.6a8.986 8.986 0 0 0-2.6-16.576A6.9 6.9 0 0 0 54 20a6.983 6.983 0 0 0-12.153-4.711L32.838 1.454a1 1 0 0 0-1.676 0L18 21.667V18a1 1 0 0 0-1-1h-6a1 1 0 0 0-1 1v15.953L3.206 44.386A3.176 3.176 0 0 0 8 48.475v1.937a5.03 5.03 0 0 0-2.584 2.622A5.007 5.007 0 0 0 1 58v4a1 1 0 0 0 1 1h60a1 1 0 0 0 1-1v-4a1 1 0 0 0-1-1zM47 15a4.987 4.987 0 0 1 4.7 6.693 1 1 0 0 0 .861 1.336A6.985 6.985 0 0 1 55.4 36.1L42.984 17.036A5.008 5.008 0 0 1 47 15zm-35 4h4v5.739l-4 6.142zM6.865 46.767a1.182 1.182 0 1 1-1.982-1.29L32 3.833l27.117 41.644a1.182 1.182 0 1 1-1.982 1.29L32.838 9.454a1 1 0 0 0-1.676 0zM38 43H26a1 1 0 0 0-1 1v13h-5.113a5.021 5.021 0 0 0-2.287-3.253 3.926 3.926 0 0 0 .263-.747H21a1 1 0 0 0 1-1v-8a1 1 0 0 0-1-1h-5a1 1 0 0 0-1 1v4.142A3.939 3.939 0 0 0 14 48a4.005 4.005 0 0 0-3.468 2.033 4.532 4.532 0 0 0-.532-.021v-4.394l22-33.785 22 33.785V57H39V44a1 1 0 0 0-1-1zm-1 2v12h-4V45zm-6 0v12h-4V45zm-14 4.382V45h3v6h-2.142A3.977 3.977 0 0 0 17 49.382zM5.931 55H6.1a1 1 0 0 0 1.012-.752v.009A2.993 2.993 0 0 1 10 52a2.942 2.942 0 0 1 .845.14 1 1 0 0 0 1.245-.685 1.992 1.992 0 1 1 3.289 1.986 1 1 0 0 0 .422 1.685A3.019 3.019 0 0 1 17.821 57H3.183a2.964 2.964 0 0 1 2.748-2zM61 61H3v-2h58z" fill="#000000" opacity="1" data-original="#000000" class=""></path><path d="M32 23a5 5 0 1 0 5 5 5.006 5.006 0 0 0-5-5zm0 8a3 3 0 1 1 3-3 3 3 0 0 1-3 3zM43 53h5a1 1 0 0 0 1-1v-8a1 1 0 0 0-1-1h-5a1 1 0 0 0-1 1v8a1 1 0 0 0 1 1zm1-8h3v6h-3z" fill="#000000" opacity="1" data-original="#000000" class=""></path></g></svg>