<svg xmlns="http://www.w3.org/2000/svg" version="1.1" xmlns:xlink="http://www.w3.org/1999/xlink" width="512" height="512" x="0" y="0" viewBox="0 0 510 510" style="enable-background:new 0 0 512 512" xml:space="preserve" class=""><g><path d="m152.814 139.783-82.74-80.841-59.893 46.667v349.449l160.051-117.922z" style="" fill="#fde0be" data-original="#fde0be"></path><path d="M499.688 455.058V105.609l-59.893-46.667-82.74 80.841-18.15 202.373z" style="" fill="#f7b073" data-original="#f7b073"></path><path d="m500.181 254.253-245-196.339-245 196.339v199.028h490z" style="" fill="#d2dcfd" data-original="#d2dcfd" class=""></path><path d="m182.82 296.457 72.361-238.543-245 196.339v199.028H182.82z" style="" fill="#93b2f4" data-original="#93b2f4"></path><path d="M112.182 326.584h51.054v55.909H69.281z" style="" fill="#fd6050" data-original="#fd6050"></path><path d="M69.281 381.394h100.95v72.261H69.281z" style="" fill="#f7b073" data-original="#f7b073"></path><path d="M154.633 453.165v-196.31l63.169-53.77h104.969l56.353 43.604v206.476z" style="" fill="#fde0be" data-original="#fde0be"></path><path d="M278.671 453.165V257.346l-60.869-54.261h104.969l56.353 43.604v206.476z" style="" fill="#f7b073" data-original="#f7b073"></path><path d="m379.124 246.689-56.353-43.604H217.802l60.869 54.261 7.785 7.225h93.118zM439.993 381.394l-56.353-53.043H278.671l60.869 54.261 7.785 7.226h93.118z" style="" fill="#fd6050" data-original="#fd6050"></path><path d="m283.463 326.584-57.07 53.77v74.704h115.529v-72.565z" style="" fill="#ffffff" data-original="#ffffff" class=""></path><path d="M342.182 383.028h98.536v72.03h-98.536z" style="" fill="#fde0be" data-original="#fde0be"></path><path d="m152.633 138.38-82.74-80.84L10 104.207v349.448" style="stroke-width:20;stroke-linecap:round;stroke-linejoin:round;stroke-miterlimit:10;" fill="none" stroke="#052a75" stroke-width="20" stroke-linecap="round" stroke-linejoin="round" stroke-miterlimit="10" data-original="#052a75" class=""></path><path d="M500 252.684 255 56.345 10 252.684" style="stroke-width:20;stroke-linecap:round;stroke-linejoin:round;stroke-miterlimit:10;" fill="none" stroke="#052a75" stroke-width="20" stroke-linecap="round" stroke-linejoin="round" stroke-miterlimit="10" data-original="#052a75" class=""></path><path d="M500 453.655V104.207L440.107 57.54l-82.739 80.84M10 453.655h490M440.719 453.655v-72.178l-56.353-54.893H283.463l-57.07 53.77v73.301" style="stroke-width:20;stroke-linecap:round;stroke-linejoin:round;stroke-miterlimit:10;" fill="none" stroke="#052a75" stroke-width="20" stroke-linecap="round" stroke-linejoin="round" stroke-miterlimit="10" data-original="#052a75" class=""></path><path d="M283.104 453.655v-46.042" style="stroke-width:20;stroke-linecap:round;stroke-linejoin:round;stroke-miterlimit:10;" fill="none" stroke="#fdcb50" stroke-width="20" stroke-linecap="round" stroke-linejoin="round" stroke-miterlimit="10" data-original="#fdcb50"></path><path d="m283.463 326.584 56.353 53.77v73.301H226.393M155.082 326.584h-42.9l-42.901 54.893v72.178M440.719 387.58H339.816" style="stroke-width:20;stroke-linecap:round;stroke-linejoin:round;stroke-miterlimit:10;" fill="none" stroke="#052a75" stroke-width="20" stroke-linecap="round" stroke-linejoin="round" stroke-miterlimit="10" data-original="#052a75" class=""></path><path d="M379.574 326.584V247.18l-56.353-43.605h-104.97l-63.169 53.771v196.309" style="stroke-width:20;stroke-linecap:round;stroke-linejoin:round;stroke-miterlimit:10;" fill="none" stroke="#052a75" stroke-width="20" stroke-linecap="round" stroke-linejoin="round" stroke-miterlimit="10" data-original="#052a75" class=""></path><path d="m218.251 203.575 60.42 53.771v73.779M379.574 264.571H278.671M69.281 382.493h85.801" style="stroke-width:20;stroke-linecap:round;stroke-linejoin:round;stroke-miterlimit:10;" fill="none" stroke="#052a75" stroke-width="20" stroke-linecap="round" stroke-linejoin="round" stroke-miterlimit="10" data-original="#052a75" class=""></path><path d="M217.675 280.97v30.498" style="stroke-width:20;stroke-linecap:round;stroke-linejoin:round;stroke-miterlimit:10;" fill="none" stroke="#fd8f01" stroke-width="20" stroke-linecap="round" stroke-linejoin="round" stroke-miterlimit="10" data-original="#fd8f01"></path></g></svg>